<svg xmlns="http://www.w3.org/2000/svg" viewBox="108 683 575 58" width="575" height="58" preserveAspectRatio="xMidYMid meet"><defs/><g fill="#000000" fill-opacity="1"><g transform="translate(115.739452, 735.749916)"><g><path d="M 0.953125 0 L 0.953125 -1.265625 C 2.710938 -1.535156 4.054688 -2.101562 4.984375 -2.96875 C 5.921875 -3.832031 6.90625 -5.5 7.9375 -7.96875 L 24.09375 -47.40625 L 25.359375 -47.40625 L 42.59375 -7.765625 C 43.75 -5.066406 44.75 -3.332031 45.59375 -2.5625 C 46.4375 -1.769531 47.921875 -1.335938 50.046875 -1.265625 L 50.046875 0 L 31.140625 0 L 31.140625 -1.265625 C 33.304688 -1.441406 34.707031 -1.804688 35.34375 -2.359375 C 35.957031 -2.898438 36.265625 -3.609375 36.265625 -4.484375 C 36.265625 -5.546875 35.738281 -7.285156 34.6875 -9.703125 L 22.90625 -36.875 L 11.96875 -10.046875 C 10.9375 -7.566406 10.421875 -5.742188 10.421875 -4.578125 C 10.421875 -3.617188 10.738281 -2.867188 11.375 -2.328125 C 12.019531 -1.753906 13.3125 -1.398438 15.25 -1.265625 L 15.25 0 Z M 0.953125 0 "/></g></g></g><g fill="#000000" fill-opacity="1"><g transform="translate(166.493456, 735.749916)"><g><path d="M 40.5 -46.34375 L 41.015625 -35.484375 L 39.71875 -35.484375 C 39.46875 -37.390625 39.125 -38.753906 38.6875 -39.578125 C 37.976562 -40.898438 37.046875 -41.878906 35.890625 -42.515625 C 34.703125 -43.128906 33.148438 -43.4375 31.234375 -43.4375 L 24.71875 -43.4375 L 24.71875 -8.03125 C 24.71875 -5.1875 25.023438 -3.410156 25.640625 -2.703125 C 26.503906 -1.742188 27.835938 -1.265625 29.640625 -1.265625 L 31.234375 -1.265625 L 31.234375 0 L 11.59375 0 L 11.59375 -1.265625 L 13.234375 -1.265625 C 15.191406 -1.265625 16.578125 -1.859375 17.390625 -3.046875 C 17.898438 -3.773438 18.15625 -5.4375 18.15625 -8.03125 L 18.15625 -43.4375 L 12.578125 -43.4375 C 10.410156 -43.4375 8.875 -43.28125 7.96875 -42.96875 C 6.78125 -42.53125 5.765625 -41.695312 4.921875 -40.46875 C 4.078125 -39.238281 3.578125 -37.578125 3.421875 -35.484375 L 2.125 -35.484375 L 2.671875 -46.34375 Z M 40.5 -46.34375 "/></g></g></g><g fill="#000000" fill-opacity="1"><g transform="translate(209.249861, 735.749916)"><g><path d="M 14.625 -43.8125 L 14.625 -25.5 L 24.8125 -25.5 C 27.457031 -25.5 29.222656 -25.894531 30.109375 -26.6875 C 31.296875 -27.738281 31.957031 -29.585938 32.09375 -32.234375 L 33.359375 -32.234375 L 33.359375 -16.09375 L 32.09375 -16.09375 C 31.769531 -18.351562 31.453125 -19.800781 31.140625 -20.4375 C 30.722656 -21.238281 30.050781 -21.863281 29.125 -22.3125 C 28.1875 -22.769531 26.75 -23 24.8125 -23 L 14.625 -23 L 14.625 -7.71875 C 14.625 -5.675781 14.71875 -4.4375 14.90625 -4 C 15.082031 -3.539062 15.398438 -3.1875 15.859375 -2.9375 C 16.316406 -2.664062 17.179688 -2.53125 18.453125 -2.53125 L 26.3125 -2.53125 C 28.9375 -2.53125 30.84375 -2.710938 32.03125 -3.078125 C 33.207031 -3.441406 34.34375 -4.160156 35.4375 -5.234375 C 36.851562 -6.640625 38.300781 -8.769531 39.78125 -11.625 L 41.15625 -11.625 L 37.15625 0 L 1.4375 0 L 1.4375 -1.265625 L 3.078125 -1.265625 C 4.171875 -1.265625 5.207031 -1.523438 6.1875 -2.046875 C 6.914062 -2.410156 7.414062 -2.957031 7.6875 -3.6875 C 7.9375 -4.414062 8.0625 -5.910156 8.0625 -8.171875 L 8.0625 -38.28125 C 8.0625 -41.21875 7.765625 -43.03125 7.171875 -43.71875 C 6.359375 -44.625 4.992188 -45.078125 3.078125 -45.078125 L 1.4375 -45.078125 L 1.4375 -46.34375 L 37.15625 -46.34375 L 37.671875 -36.203125 L 36.328125 -36.203125 C 35.847656 -38.640625 35.328125 -40.3125 34.765625 -41.21875 C 34.171875 -42.132812 33.300781 -42.832031 32.15625 -43.3125 C 31.25 -43.644531 29.644531 -43.8125 27.34375 -43.8125 Z M 14.625 -43.8125 "/></g></g></g><g fill="#000000" fill-opacity="1"><g transform="translate(252.006266, 735.749916)"><g><path d="M 40.125 -12.8125 L 41.25 -12.578125 L 37.296875 0 L 1.40625 0 L 1.40625 -1.265625 L 3.140625 -1.265625 C 5.097656 -1.265625 6.5 -1.898438 7.34375 -3.171875 C 7.820312 -3.898438 8.0625 -5.585938 8.0625 -8.234375 L 8.0625 -38.140625 C 8.0625 -41.035156 7.742188 -42.847656 7.109375 -43.578125 C 6.222656 -44.578125 4.898438 -45.078125 3.140625 -45.078125 L 1.40625 -45.078125 L 1.40625 -46.34375 L 22.390625 -46.34375 L 22.390625 -45.078125 C 19.929688 -45.109375 18.210938 -44.882812 17.234375 -44.40625 C 16.222656 -43.925781 15.535156 -43.320312 15.171875 -42.59375 C 14.804688 -41.863281 14.625 -40.117188 14.625 -37.359375 L 14.625 -8.234375 C 14.625 -6.347656 14.804688 -5.050781 15.171875 -4.34375 C 15.453125 -3.863281 15.875 -3.507812 16.4375 -3.28125 C 17.007812 -3.050781 18.785156 -2.9375 21.765625 -2.9375 L 25.15625 -2.9375 C 28.707031 -2.9375 31.203125 -3.195312 32.640625 -3.71875 C 34.078125 -4.25 35.390625 -5.1875 36.578125 -6.53125 C 37.753906 -7.851562 38.9375 -9.945312 40.125 -12.8125 Z M 40.125 -12.8125 "/></g></g></g><g fill="#000000" fill-opacity="1"><g transform="translate(294.762671, 735.749916)"><g><path d="M 21.609375 -1.265625 L 21.609375 0 L 1.75 0 L 1.75 -1.265625 L 3.390625 -1.265625 C 5.296875 -1.265625 6.679688 -1.820312 7.546875 -2.9375 C 8.097656 -3.664062 8.375 -5.421875 8.375 -8.203125 L 8.375 -38.140625 C 8.375 -40.492188 8.226562 -42.046875 7.9375 -42.796875 C 7.707031 -43.359375 7.238281 -43.847656 6.53125 -44.265625 C 5.53125 -44.804688 4.484375 -45.078125 3.390625 -45.078125 L 1.75 -45.078125 L 1.75 -46.34375 L 21.609375 -46.34375 L 21.609375 -45.078125 L 19.921875 -45.078125 C 18.035156 -45.078125 16.660156 -44.519531 15.796875 -43.40625 C 15.222656 -42.675781 14.9375 -40.921875 14.9375 -38.140625 L 14.9375 -8.203125 C 14.9375 -5.859375 15.082031 -4.3125 15.375 -3.5625 C 15.601562 -2.988281 16.082031 -2.492188 16.8125 -2.078125 C 17.789062 -1.535156 18.828125 -1.265625 19.921875 -1.265625 Z M 21.609375 -1.265625 "/></g></g></g><g fill="#000000" fill-opacity="1"><g transform="translate(318.071916, 735.749916)"><g><path d="M 14.625 -43.8125 L 14.625 -25.5 L 24.8125 -25.5 C 27.457031 -25.5 29.222656 -25.894531 30.109375 -26.6875 C 31.296875 -27.738281 31.957031 -29.585938 32.09375 -32.234375 L 33.359375 -32.234375 L 33.359375 -16.09375 L 32.09375 -16.09375 C 31.769531 -18.351562 31.453125 -19.800781 31.140625 -20.4375 C 30.722656 -21.238281 30.050781 -21.863281 29.125 -22.3125 C 28.1875 -22.769531 26.75 -23 24.8125 -23 L 14.625 -23 L 14.625 -7.71875 C 14.625 -5.675781 14.71875 -4.4375 14.90625 -4 C 15.082031 -3.539062 15.398438 -3.1875 15.859375 -2.9375 C 16.316406 -2.664062 17.179688 -2.53125 18.453125 -2.53125 L 26.3125 -2.53125 C 28.9375 -2.53125 30.84375 -2.710938 32.03125 -3.078125 C 33.207031 -3.441406 34.34375 -4.160156 35.4375 -5.234375 C 36.851562 -6.640625 38.300781 -8.769531 39.78125 -11.625 L 41.15625 -11.625 L 37.15625 0 L 1.4375 0 L 1.4375 -1.265625 L 3.078125 -1.265625 C 4.171875 -1.265625 5.207031 -1.523438 6.1875 -2.046875 C 6.914062 -2.410156 7.414062 -2.957031 7.6875 -3.6875 C 7.9375 -4.414062 8.0625 -5.910156 8.0625 -8.171875 L 8.0625 -38.28125 C 8.0625 -41.21875 7.765625 -43.03125 7.171875 -43.71875 C 6.359375 -44.625 4.992188 -45.078125 3.078125 -45.078125 L 1.4375 -45.078125 L 1.4375 -46.34375 L 37.15625 -46.34375 L 37.671875 -36.203125 L 36.328125 -36.203125 C 35.847656 -38.640625 35.328125 -40.3125 34.765625 -41.21875 C 34.171875 -42.132812 33.300781 -42.832031 32.15625 -43.3125 C 31.25 -43.644531 29.644531 -43.8125 27.34375 -43.8125 Z M 14.625 -43.8125 "/></g></g></g><g fill="#000000" fill-opacity="1"><g transform="translate(360.828321, 735.749916)"><g><path d="M 47.3125 0 L 34.9375 0 L 19.25 -21.671875 C 18.082031 -21.628906 17.132812 -21.609375 16.40625 -21.609375 C 16.113281 -21.609375 15.796875 -21.617188 15.453125 -21.640625 C 15.109375 -21.640625 14.753906 -21.648438 14.390625 -21.671875 L 14.390625 -8.203125 C 14.390625 -5.285156 14.707031 -3.472656 15.34375 -2.765625 C 16.207031 -1.765625 17.507812 -1.265625 19.25 -1.265625 L 21.0625 -1.265625 L 21.0625 0 L 1.203125 0 L 1.203125 -1.265625 L 2.9375 -1.265625 C 4.894531 -1.265625 6.296875 -1.898438 7.140625 -3.171875 C 7.617188 -3.878906 7.859375 -5.554688 7.859375 -8.203125 L 7.859375 -38.140625 C 7.859375 -41.054688 7.539062 -42.867188 6.90625 -43.578125 C 6.019531 -44.578125 4.695312 -45.078125 2.9375 -45.078125 L 1.203125 -45.078125 L 1.203125 -46.34375 L 18.078125 -46.34375 C 23.003906 -46.34375 26.640625 -45.988281 28.984375 -45.28125 C 31.304688 -44.550781 33.289062 -43.234375 34.9375 -41.328125 C 36.550781 -39.390625 37.359375 -37.085938 37.359375 -34.421875 C 37.359375 -31.566406 36.4375 -29.09375 34.59375 -27 C 32.71875 -24.90625 29.832031 -23.425781 25.9375 -22.5625 L 35.515625 -9.265625 C 37.703125 -6.210938 39.582031 -4.179688 41.15625 -3.171875 C 42.726562 -2.171875 44.78125 -1.535156 47.3125 -1.265625 Z M 14.390625 -23.828125 C 14.828125 -23.828125 15.203125 -23.828125 15.515625 -23.828125 C 15.835938 -23.804688 16.097656 -23.796875 16.296875 -23.796875 C 20.722656 -23.796875 24.0625 -24.75 26.3125 -26.65625 C 28.550781 -28.570312 29.671875 -31.007812 29.671875 -33.96875 C 29.671875 -36.863281 28.769531 -39.222656 26.96875 -41.046875 C 25.144531 -42.847656 22.738281 -43.75 19.75 -43.75 C 18.4375 -43.75 16.648438 -43.53125 14.390625 -43.09375 Z M 14.390625 -23.828125 "/></g></g></g><g fill="#000000" fill-opacity="1"><g transform="translate(407.515151, 735.749916)"><g/></g></g><g fill="#000000" fill-opacity="1"><g transform="translate(425.71414, 735.749916)"><g><path d="M 32.328125 -23.65625 C 35.546875 -22.96875 37.953125 -21.875 39.546875 -20.375 C 41.753906 -18.28125 42.859375 -15.71875 42.859375 -12.6875 C 42.859375 -10.382812 42.128906 -8.179688 40.671875 -6.078125 C 39.210938 -3.960938 37.21875 -2.425781 34.6875 -1.46875 C 32.132812 -0.488281 28.25 0 23.03125 0 L 1.15625 0 L 1.15625 -1.265625 L 2.90625 -1.265625 C 4.84375 -1.265625 6.234375 -1.878906 7.078125 -3.109375 C 7.597656 -3.910156 7.859375 -5.609375 7.859375 -8.203125 L 7.859375 -38.140625 C 7.859375 -41.015625 7.53125 -42.828125 6.875 -43.578125 C 5.976562 -44.578125 4.65625 -45.078125 2.90625 -45.078125 L 1.15625 -45.078125 L 1.15625 -46.34375 L 21.1875 -46.34375 C 24.925781 -46.34375 27.925781 -46.070312 30.1875 -45.53125 C 33.601562 -44.707031 36.210938 -43.257812 38.015625 -41.1875 C 39.804688 -39.09375 40.703125 -36.6875 40.703125 -33.96875 C 40.703125 -31.644531 40 -29.570312 38.59375 -27.75 C 37.175781 -25.90625 35.085938 -24.539062 32.328125 -23.65625 Z M 14.421875 -25.5 C 15.265625 -25.34375 16.234375 -25.226562 17.328125 -25.15625 C 18.398438 -25.0625 19.585938 -25.015625 20.890625 -25.015625 C 24.210938 -25.015625 26.71875 -25.378906 28.40625 -26.109375 C 30.070312 -26.816406 31.347656 -27.910156 32.234375 -29.390625 C 33.117188 -30.867188 33.5625 -32.488281 33.5625 -34.25 C 33.5625 -36.957031 32.457031 -39.269531 30.25 -41.1875 C 28.039062 -43.101562 24.816406 -44.0625 20.578125 -44.0625 C 18.296875 -44.0625 16.242188 -43.8125 14.421875 -43.3125 Z M 14.421875 -3.34375 C 17.066406 -2.726562 19.675781 -2.421875 22.25 -2.421875 C 26.375 -2.421875 29.519531 -3.359375 31.6875 -5.234375 C 33.851562 -7.078125 34.9375 -9.363281 34.9375 -12.09375 C 34.9375 -13.894531 34.445312 -15.628906 33.46875 -17.296875 C 32.488281 -18.960938 30.890625 -20.269531 28.671875 -21.21875 C 26.460938 -22.175781 23.726562 -22.65625 20.46875 -22.65625 C 19.0625 -22.65625 17.851562 -22.632812 16.84375 -22.59375 C 15.84375 -22.550781 15.035156 -22.472656 14.421875 -22.359375 Z M 14.421875 -3.34375 "/></g></g></g><g fill="#000000" fill-opacity="1"><g transform="translate(472.400995, 735.749916)"><g><path d="M 21.609375 -1.265625 L 21.609375 0 L 1.75 0 L 1.75 -1.265625 L 3.390625 -1.265625 C 5.296875 -1.265625 6.679688 -1.820312 7.546875 -2.9375 C 8.097656 -3.664062 8.375 -5.421875 8.375 -8.203125 L 8.375 -38.140625 C 8.375 -40.492188 8.226562 -42.046875 7.9375 -42.796875 C 7.707031 -43.359375 7.238281 -43.847656 6.53125 -44.265625 C 5.53125 -44.804688 4.484375 -45.078125 3.390625 -45.078125 L 1.75 -45.078125 L 1.75 -46.34375 L 21.609375 -46.34375 L 21.609375 -45.078125 L 19.921875 -45.078125 C 18.035156 -45.078125 16.660156 -44.519531 15.796875 -43.40625 C 15.222656 -42.675781 14.9375 -40.921875 14.9375 -38.140625 L 14.9375 -8.203125 C 14.9375 -5.859375 15.082031 -4.3125 15.375 -3.5625 C 15.601562 -2.988281 16.082031 -2.492188 16.8125 -2.078125 C 17.789062 -1.535156 18.828125 -1.265625 19.921875 -1.265625 Z M 21.609375 -1.265625 "/></g></g></g><g fill="#000000" fill-opacity="1"><g transform="translate(495.710227, 735.749916)"><g><path d="M 0.953125 0 L 0.953125 -1.265625 C 2.710938 -1.535156 4.054688 -2.101562 4.984375 -2.96875 C 5.921875 -3.832031 6.90625 -5.5 7.9375 -7.96875 L 24.09375 -47.40625 L 25.359375 -47.40625 L 42.59375 -7.765625 C 43.75 -5.066406 44.75 -3.332031 45.59375 -2.5625 C 46.4375 -1.769531 47.921875 -1.335938 50.046875 -1.265625 L 50.046875 0 L 31.140625 0 L 31.140625 -1.265625 C 33.304688 -1.441406 34.707031 -1.804688 35.34375 -2.359375 C 35.957031 -2.898438 36.265625 -3.609375 36.265625 -4.484375 C 36.265625 -5.546875 35.738281 -7.285156 34.6875 -9.703125 L 22.90625 -36.875 L 11.96875 -10.046875 C 10.9375 -7.566406 10.421875 -5.742188 10.421875 -4.578125 C 10.421875 -3.617188 10.738281 -2.867188 11.375 -2.328125 C 12.019531 -1.753906 13.3125 -1.398438 15.25 -1.265625 L 15.25 0 Z M 0.953125 0 "/></g></g></g><g fill="#000000" fill-opacity="1"><g transform="translate(546.464221, 735.749916)"><g><path d="M -0.921875 -46.34375 L 11.65625 -46.34375 L 39.984375 -11.59375 L 39.984375 -38.3125 C 39.984375 -41.164062 39.664062 -42.941406 39.03125 -43.640625 C 38.1875 -44.597656 36.851562 -45.078125 35.03125 -45.078125 L 33.421875 -45.078125 L 33.421875 -46.34375 L 49.5625 -46.34375 L 49.5625 -45.078125 L 47.921875 -45.078125 C 45.960938 -45.078125 44.570312 -44.488281 43.75 -43.3125 C 43.25 -42.582031 43 -40.914062 43 -38.3125 L 43 0.75 L 41.765625 0.75 L 11.21875 -36.578125 L 11.21875 -8.03125 C 11.21875 -5.1875 11.523438 -3.410156 12.140625 -2.703125 C 13.003906 -1.742188 14.335938 -1.265625 16.140625 -1.265625 L 17.78125 -1.265625 L 17.78125 0 L 1.640625 0 L 1.640625 -1.265625 L 3.25 -1.265625 C 5.226562 -1.265625 6.628906 -1.859375 7.453125 -3.046875 C 7.953125 -3.773438 8.203125 -5.4375 8.203125 -8.03125 L 8.203125 -40.265625 C 6.859375 -41.835938 5.84375 -42.875 5.15625 -43.375 C 4.457031 -43.875 3.429688 -44.34375 2.078125 -44.78125 C 1.421875 -44.976562 0.421875 -45.078125 -0.921875 -45.078125 Z M -0.921875 -46.34375 "/></g></g></g><g fill="#000000" fill-opacity="1"><g transform="translate(597.013182, 735.749916)"><g><path d="M 42.140625 -47.40625 L 43.203125 -31.65625 L 42.140625 -31.65625 C 40.734375 -36.363281 38.71875 -39.757812 36.09375 -41.84375 C 33.46875 -43.914062 30.320312 -44.953125 26.65625 -44.953125 C 23.582031 -44.953125 20.804688 -44.175781 18.328125 -42.625 C 15.835938 -41.050781 13.882812 -38.554688 12.46875 -35.140625 C 11.039062 -31.722656 10.328125 -27.472656 10.328125 -22.390625 C 10.328125 -18.191406 11 -14.554688 12.34375 -11.484375 C 13.6875 -8.410156 15.710938 -6.050781 18.421875 -4.40625 C 21.109375 -2.769531 24.1875 -1.953125 27.65625 -1.953125 C 30.65625 -1.953125 33.304688 -2.597656 35.609375 -3.890625 C 37.910156 -5.171875 40.441406 -7.722656 43.203125 -11.546875 L 44.265625 -10.875 C 41.941406 -6.75 39.226562 -3.726562 36.125 -1.8125 C 33.03125 0.101562 29.351562 1.0625 25.09375 1.0625 C 17.40625 1.0625 11.457031 -1.785156 7.25 -7.484375 C 4.101562 -11.722656 2.53125 -16.710938 2.53125 -22.453125 C 2.53125 -27.078125 3.566406 -31.328125 5.640625 -35.203125 C 7.710938 -39.078125 10.570312 -42.085938 14.21875 -44.234375 C 17.84375 -46.347656 21.804688 -47.40625 26.109375 -47.40625 C 29.460938 -47.40625 32.769531 -46.585938 36.03125 -44.953125 C 36.988281 -44.441406 37.671875 -44.1875 38.078125 -44.1875 C 38.691406 -44.1875 39.226562 -44.40625 39.6875 -44.84375 C 40.28125 -45.457031 40.703125 -46.3125 40.953125 -47.40625 Z M 42.140625 -47.40625 "/></g></g></g><g fill="#000000" fill-opacity="1"><g transform="translate(643.700038, 735.749916)"><g><path d="M 25.59375 -47.40625 C 31.613281 -47.40625 36.832031 -45.128906 41.25 -40.578125 C 45.65625 -35.992188 47.859375 -30.285156 47.859375 -23.453125 C 47.859375 -16.410156 45.632812 -10.5625 41.1875 -5.90625 C 36.738281 -1.257812 31.359375 1.0625 25.046875 1.0625 C 18.671875 1.0625 13.316406 -1.207031 8.984375 -5.75 C 4.640625 -10.28125 2.46875 -16.144531 2.46875 -23.34375 C 2.46875 -30.707031 4.972656 -36.710938 9.984375 -41.359375 C 14.335938 -45.390625 19.539062 -47.40625 25.59375 -47.40625 Z M 24.953125 -44.90625 C 20.804688 -44.90625 17.476562 -43.367188 14.96875 -40.296875 C 11.84375 -36.472656 10.28125 -30.867188 10.28125 -23.484375 C 10.28125 -15.921875 11.898438 -10.097656 15.140625 -6.015625 C 17.628906 -2.921875 20.910156 -1.375 24.984375 -1.375 C 29.335938 -1.375 32.9375 -3.066406 35.78125 -6.453125 C 38.613281 -9.847656 40.03125 -15.207031 40.03125 -22.53125 C 40.03125 -30.457031 38.46875 -36.367188 35.34375 -40.265625 C 32.832031 -43.359375 29.367188 -44.90625 24.953125 -44.90625 Z M 24.953125 -44.90625 "/></g></g></g></svg>